<svg xmlns="http://www.w3.org/2000/svg" viewBox="0 0 1200 600">
  <defs>
    <linearGradient id="bg10" x1="0%" y1="0%" x2="100%" y2="100%">
      <stop offset="0%" style="stop-color:#1A2332"/>
      <stop offset="100%" style="stop-color:#2563A8"/>
    </linearGradient>
  </defs>
  <rect width="1200" height="600" fill="url(#bg10)"/>
  <circle cx="800" cy="200" r="250" fill="#3B8FD4" opacity="0.06"/>
  <!-- Clipboard -->
  <g transform="translate(460, 80)">
    <rect x="20" y="30" width="240" height="300" rx="12" fill="#1A2332" stroke="#5BA3DE" stroke-width="2" opacity="0.8"/>
    <rect x="80" y="10" width="120" height="40" rx="8" fill="#2563A8" opacity="0.5" stroke="#5BA3DE" stroke-width="1.5"/>
    <!-- Checklist -->
    <rect x="55" y="80" width="16" height="16" rx="3" fill="none" stroke="#10b981" stroke-width="2" opacity="0.7"/>
    <path d="M58 88 L63 93 L69 83" fill="none" stroke="#10b981" stroke-width="2" opacity="0.7"/>
    <rect x="85" y="82" width="140" height="8" rx="4" fill="white" opacity="0.15"/>
    <rect x="55" y="120" width="16" height="16" rx="3" fill="none" stroke="#10b981" stroke-width="2" opacity="0.6"/>
    <path d="M58 128 L63 133 L69 123" fill="none" stroke="#10b981" stroke-width="2" opacity="0.6"/>
    <rect x="85" y="122" width="120" height="8" rx="4" fill="white" opacity="0.12"/>
    <rect x="55" y="160" width="16" height="16" rx="3" fill="none" stroke="#f59e0b" stroke-width="2" opacity="0.6"/>
    <rect x="85" y="162" width="130" height="8" rx="4" fill="white" opacity="0.1"/>
    <rect x="55" y="200" width="16" height="16" rx="3" fill="none" stroke="#5BA3DE" stroke-width="2" opacity="0.4"/>
    <rect x="85" y="202" width="100" height="8" rx="4" fill="white" opacity="0.08"/>
    <!-- Magnifying glass -->
    <circle cx="220" cy="280" r="30" fill="none" stroke="white" stroke-width="3" opacity="0.3"/>
    <line x1="240" y1="300" x2="260" y2="320" stroke="white" stroke-width="3" opacity="0.3" stroke-linecap="round"/>
  </g>
  <text x="600" y="480" text-anchor="middle" fill="white" font-family="system-ui" font-size="28" font-weight="500" opacity="0.9">Audit IT Complet</text>
  <text x="600" y="520" text-anchor="middle" fill="white" font-family="system-ui" font-size="16" opacity="0.4">AXA IT Blog</text>
</svg>