<svg xmlns="http://www.w3.org/2000/svg" viewBox="0 0 1200 600">
  <defs>
    <linearGradient id="bg1" x1="0%" y1="0%" x2="100%" y2="100%">
      <stop offset="0%" style="stop-color:#1A2332"/>
      <stop offset="100%" style="stop-color:#2563A8"/>
    </linearGradient>
  </defs>
  <rect width="1200" height="600" fill="url(#bg1)"/>
  <circle cx="900" cy="300" r="200" fill="#3B8FD4" opacity="0.1"/>
  <circle cx="300" cy="400" r="150" fill="#5BA3DE" opacity="0.08"/>
  <!-- Wrench icon -->
  <g transform="translate(500, 200)" fill="none" stroke="white" stroke-width="4" stroke-linecap="round" opacity="0.9">
    <path d="M40 0 L80 40 L60 60 L20 20" fill="#3B8FD4" stroke="none" opacity="0.3"/>
    <circle cx="60" cy="80" r="50" stroke-width="3" opacity="0.4"/>
    <path d="M30 30 L90 90" stroke-width="5"/>
    <path d="M90 30 L30 90" stroke-width="5"/>
    <rect x="20" y="120" width="160" height="8" rx="4" fill="white" opacity="0.2"/>
    <rect x="20" y="140" width="120" height="8" rx="4" fill="white" opacity="0.15"/>
    <rect x="20" y="160" width="80" height="8" rx="4" fill="white" opacity="0.1"/>
  </g>
  <!-- Gear -->
  <g transform="translate(750, 250)">
    <circle cx="0" cy="0" r="40" fill="none" stroke="#5BA3DE" stroke-width="3" opacity="0.4"/>
    <circle cx="0" cy="0" r="15" fill="#3B8FD4" opacity="0.5"/>
    <line x1="-50" y1="0" x2="50" y2="0" stroke="#5BA3DE" stroke-width="2" opacity="0.3"/>
    <line x1="0" y1="-50" x2="0" y2="50" stroke="#5BA3DE" stroke-width="2" opacity="0.3"/>
  </g>
  <text x="600" y="480" text-anchor="middle" fill="white" font-family="system-ui" font-size="28" font-weight="500" opacity="0.9">Mentenanta Preventiva IT</text>
  <text x="600" y="520" text-anchor="middle" fill="white" font-family="system-ui" font-size="16" opacity="0.4">AXA IT Blog</text>
</svg>