<svg xmlns="http://www.w3.org/2000/svg" viewBox="0 0 800 400">
  <defs>
    <linearGradient id="nis2bg" x1="0%" y1="0%" x2="100%" y2="100%">
      <stop offset="0%" style="stop-color:#0A0A0A"/>
      <stop offset="100%" style="stop-color:#1a1a1a"/>
    </linearGradient>
  </defs>
  <rect width="800" height="400" fill="url(#nis2bg)"/>
  <circle cx="120" cy="300" r="180" fill="#FF5A1F" opacity="0.07"/>
  <circle cx="700" cy="100" r="140" fill="#FF5A1F" opacity="0.05"/>
  <!-- Shield with EU stars -->
  <g transform="translate(330, 70)">
    <path d="M70 0 L140 35 L140 115 C140 180 70 215 70 215 C70 215 0 180 0 115 L0 35 Z" fill="#FF5A1F" opacity="0.25" stroke="#FF5A1F" stroke-width="3"/>
    <!-- Circle of stars (EU style) -->
    <g fill="#FAFAFA" opacity="0.92">
      <circle cx="70" cy="50" r="3"/>
      <circle cx="95" cy="60" r="3"/>
      <circle cx="110" cy="85" r="3"/>
      <circle cx="110" cy="115" r="3"/>
      <circle cx="95" cy="140" r="3"/>
      <circle cx="70" cy="150" r="3"/>
      <circle cx="45" cy="140" r="3"/>
      <circle cx="30" cy="115" r="3"/>
      <circle cx="30" cy="85" r="3"/>
      <circle cx="45" cy="60" r="3"/>
    </g>
    <!-- Center NIS2 -->
    <text x="70" y="110" text-anchor="middle" fill="#FAFAFA" font-family="system-ui" font-size="20" font-weight="700">NIS2</text>
  </g>
  <!-- Accent dots -->
  <circle cx="180" cy="160" r="5" fill="#FF5A1F" opacity="0.5"/>
  <circle cx="620" cy="280" r="4" fill="#FF5A1F" opacity="0.4"/>
  <circle cx="150" cy="250" r="3" fill="#FF5A1F" opacity="0.6"/>
  <text x="400" y="330" text-anchor="middle" fill="#FAFAFA" font-family="system-ui" font-size="22" font-weight="500" opacity="0.95">Conformitate NIS2</text>
  <text x="400" y="358" text-anchor="middle" fill="#FAFAFA" font-family="system-ui" font-size="13" opacity="0.4">AXA IT Blog</text>
</svg>
